<?xml version="1.0" encoding="utf-8"?>
<!-- Generator: Adobe Illustrator 19.1.0, SVG Export Plug-In . SVG Version: 6.00 Build 0)  -->
<svg version="1.1" id="Layer_1" xmlns="http://www.w3.org/2000/svg" xmlns:xlink="http://www.w3.org/1999/xlink" x="0px" y="0px"
	 viewBox="0 0 76.4 27.7" style="enable-background:new 0 0 76.4 27.7;" xml:space="preserve">
<style type="text/css">
	.st0{fill:#282828;}
</style>
<g>
	<path class="st0" d="M0,27.4V1.2h4.4v10.9H17V1.2h4.5c0,0.3,0,1.1,0,2.4c0,1.3,0,2.9,0,4.8c0,1.9,0,3.8,0,5.9c0,2.1,0,4.1,0,5.9
		c0,1.9,0,3.5,0,4.8c0,1.3,0,2.1,0,2.4H17V16.3H4.4v11.1H0z"/>
	<path class="st0" d="M27.5,0c0.1,0.2,0.4,0.5,0.8,1.1c0.4,0.6,0.9,1.3,1.5,2.2c0.6,0.9,1.3,1.8,2.1,2.8c0.8,1,1.5,2.1,2.3,3.1
		c0.8,1.1,1.5,2.1,2.3,3.1c0.7,1,1.4,2,2,2.8c0.6,0.8,1.1,1.5,1.5,2.1c0.4,0.6,0.7,0.9,0.8,1.1c0-0.1,0.3-0.4,0.6-0.9s0.9-1.2,1.5-2
		s1.3-1.7,2-2.8s1.5-2.1,2.3-3.2s1.6-2.1,2.3-3.2c0.8-1.1,1.5-2,2.1-2.9c0.6-0.9,1.2-1.6,1.6-2.2c0.4-0.6,0.7-1,0.8-1.2v27.4h-4.7
		V14c0-0.2,0-0.4,0.1-0.6c0-0.2,0.1-0.3,0.1-0.4l-8.7,12.5c-0.1-0.1-0.4-0.5-0.9-1.2c-0.5-0.6-1-1.4-1.7-2.3
		c-0.6-0.9-1.3-1.8-2.1-2.9c-0.7-1-1.4-2-2-2.8c-0.6-0.9-1.2-1.6-1.6-2.2c-0.4-0.6-0.7-1-0.7-1.1c0,0,0,0.2,0.1,0.4
		c0,0.2,0.1,0.4,0.1,0.6v13.4h-4.4V0z"/>
	<path class="st0" d="M75.5,2.6l-1.6,3.6c-1-0.4-2-0.6-3-0.9C70,5.1,69.1,5,68.2,5c-1.5,0-2.6,0.3-3.5,0.9c-0.9,0.6-1.3,1.3-1.3,2.2
		c0,0.8,0.3,1.4,1,1.9c0.6,0.5,1.4,0.9,2.4,1.3c1,0.4,2,0.8,3.1,1.2s2.2,0.9,3.1,1.5c1,0.6,1.8,1.4,2.4,2.4s1,2.2,1,3.7
		c0,1.2-0.2,2.2-0.6,3.1c-0.4,0.9-1,1.7-1.9,2.4c-0.8,0.7-1.9,1.2-3.2,1.6c-1.3,0.4-2.8,0.6-4.5,0.6c-1.1,0-2-0.1-2.9-0.2
		c-0.9-0.1-1.6-0.3-2.3-0.5c-0.7-0.2-1.3-0.5-1.8-0.7s-1-0.5-1.4-0.7l1.9-3.9c1,0.6,2.1,1,3.2,1.3c1.2,0.3,2.2,0.5,3.1,0.5
		c0.4,0,1,0,1.7-0.1c0.7-0.1,1.3-0.3,2-0.5c0.6-0.3,1.2-0.6,1.7-1.1c0.5-0.5,0.7-1,0.7-1.8c0-0.8-0.3-1.5-1-2.1
		c-0.6-0.5-1.4-1-2.4-1.4s-2-0.8-3.1-1.2c-1.1-0.4-2.2-0.9-3.1-1.5c-1-0.6-1.8-1.3-2.4-2.1s-1-1.9-1-3.1c0-0.9,0.2-1.8,0.5-2.7
		C60,4.8,60.6,4,61.3,3.3C62,2.7,62.9,2.1,64,1.7C65.1,1.2,66.4,1,67.9,1c0.9,0,1.8,0.1,2.7,0.2c0.9,0.2,1.7,0.3,2.4,0.5
		c0.7,0.2,1.3,0.4,1.7,0.6C75.2,2.5,75.4,2.6,75.5,2.6z"/>
</g>
</svg>
